<mxfile host="app.diagrams.net" modified="2021-03-04T07:21:28.990Z" agent="5.0 (Macintosh; Intel Mac OS X 10_15_6) AppleWebKit/537.36 (KHTML, like Gecko) Chrome/88.0.4324.182 Safari/537.36" etag="XK377qRYabQm-8vxDjEJ" version="14.4.4" type="github">
  <diagram id="e8IQLnRcx05QOW-mKz85" name="Page-1">
    <mxGraphModel dx="824" dy="492" grid="1" gridSize="10" guides="1" tooltips="1" connect="1" arrows="1" fold="1" page="1" pageScale="1" pageWidth="1169" pageHeight="827" math="0" shadow="0">
      <root>
        <mxCell id="0" />
        <mxCell id="1" parent="0" />
        <mxCell id="eiAdOMqB_do3TVSEnxAr-1" value="后台更新信息推送模块" style="rounded=0;whiteSpace=wrap;html=1;fillColor=#f5f5f5;strokeColor=#666666;fontColor=#333333;" vertex="1" parent="1">
          <mxGeometry x="20" y="840" width="140" height="60" as="geometry" />
        </mxCell>
        <mxCell id="eiAdOMqB_do3TVSEnxAr-2" value="消息接收模块" style="rounded=0;whiteSpace=wrap;html=1;fillColor=#f5f5f5;strokeColor=#666666;fontColor=#333333;" vertex="1" parent="1">
          <mxGeometry x="300" y="840" width="120" height="60" as="geometry" />
        </mxCell>
        <mxCell id="eiAdOMqB_do3TVSEnxAr-3" value="" style="endArrow=none;dashed=1;html=1;" edge="1" parent="1">
          <mxGeometry width="50" height="50" relative="1" as="geometry">
            <mxPoint x="180" y="1110" as="sourcePoint" />
            <mxPoint x="180" y="700" as="targetPoint" />
          </mxGeometry>
        </mxCell>
        <mxCell id="eiAdOMqB_do3TVSEnxAr-4" value="" style="endArrow=classic;startArrow=none;html=1;entryX=0;entryY=0.25;entryDx=0;entryDy=0;exitX=1;exitY=0.25;exitDx=0;exitDy=0;startFill=0;" edge="1" parent="1" source="eiAdOMqB_do3TVSEnxAr-1" target="eiAdOMqB_do3TVSEnxAr-2">
          <mxGeometry width="50" height="50" relative="1" as="geometry">
            <mxPoint x="160" y="900" as="sourcePoint" />
            <mxPoint x="210" y="850" as="targetPoint" />
          </mxGeometry>
        </mxCell>
        <mxCell id="eiAdOMqB_do3TVSEnxAr-5" value="" style="endArrow=none;startArrow=classic;html=1;entryX=0;entryY=0.75;entryDx=0;entryDy=0;exitX=1;exitY=0.75;exitDx=0;exitDy=0;endFill=0;" edge="1" parent="1" source="eiAdOMqB_do3TVSEnxAr-1" target="eiAdOMqB_do3TVSEnxAr-2">
          <mxGeometry width="50" height="50" relative="1" as="geometry">
            <mxPoint x="160" y="920" as="sourcePoint" />
            <mxPoint x="230.71067811865476" y="870" as="targetPoint" />
          </mxGeometry>
        </mxCell>
        <mxCell id="eiAdOMqB_do3TVSEnxAr-6" value="IM信令通道" style="text;html=1;strokeColor=none;fillColor=none;align=center;verticalAlign=middle;whiteSpace=wrap;rounded=0;" vertex="1" parent="1">
          <mxGeometry x="190" y="860" width="90" height="20" as="geometry" />
        </mxCell>
        <mxCell id="eiAdOMqB_do3TVSEnxAr-7" value="消息预处理" style="rounded=0;whiteSpace=wrap;html=1;fillColor=#f5f5f5;strokeColor=#666666;fontColor=#333333;" vertex="1" parent="1">
          <mxGeometry x="465" y="840" width="85" height="60" as="geometry" />
        </mxCell>
        <mxCell id="eiAdOMqB_do3TVSEnxAr-8" value="" style="shape=curlyBracket;whiteSpace=wrap;html=1;rounded=1;size=0;" vertex="1" parent="1">
          <mxGeometry x="585" y="810" width="20" height="120" as="geometry" />
        </mxCell>
        <mxCell id="eiAdOMqB_do3TVSEnxAr-10" value="" style="endArrow=classic;startArrow=classic;html=1;exitX=1;exitY=0.5;exitDx=0;exitDy=0;entryX=0;entryY=0.5;entryDx=0;entryDy=0;" edge="1" parent="1" source="eiAdOMqB_do3TVSEnxAr-2" target="eiAdOMqB_do3TVSEnxAr-7">
          <mxGeometry width="50" height="50" relative="1" as="geometry">
            <mxPoint x="410" y="1020" as="sourcePoint" />
            <mxPoint x="460" y="970" as="targetPoint" />
          </mxGeometry>
        </mxCell>
      </root>
    </mxGraphModel>
  </diagram>
</mxfile>
